inDegrees=yes
name=ik_S55_A07_T02
DataType=double
version=3
OpenSimVersion=4.3-2021-08-27-4bc7ad9
endheader
time	pelvis_tilt	pelvis_list	pelvis_rotation	pelvis_tx	pelvis_ty	pelvis_tz	hip_flexion_r	hip_adduction_r	hip_rotation_r	knee_angle_r	knee_angle_r_beta	ankle_angle_r	subtalar_angle_r	mtp_angle_r	hip_flexion_l	hip_adduction_l	hip_rotation_l	knee_angle_l	knee_angle_l_beta	ankle_angle_l	subtalar_angle_l	mtp_angle_l	lumbar_extension	lumbar_bending	lumbar_rotation	arm_flex_r	arm_add_r	arm_rot_r	elbow_flex_r	pro_sup_r	wrist_flex_r	wrist_dev_r	arm_flex_l	arm_add_l	arm_rot_l	elbow_flex_l	pro_sup_l	wrist_flex_l	wrist_dev_l
0	0	0	0	0	0.9399999999999999	0	0	0	0	0	0	0	0	0	0	0	0	0	0	0	0	0	0	0	0	0	0	0	0	89.99999999963507	0	0	0	0	0	0	89.99999999869995	0	0
0.02	-3.492956239883359	0.01197650491642757	20.77619366059098	0	0.9399999999999999	0	4.928183548067258	-2.278605485062414	-1.654756843784	7.384292287794398	0.1288802133516369	0	0	0	4.928183548067258	-2.278605485062414	-1.654756843784	7.384292287794398	0.1288802133516369	0	0	0	-1.590151742960486	-2.441146687616784	-0.1098412580495303	17.06989556388195	-16.3580487929473	-6.912086645051317	60.66959003324151	128.5259378550689	0	0	15.25195130821424	-19.86727106650766	-8.899836831002427	66.06113774117638	136.0039476511567	0	0
0.04	-3.491575168063895	0.007778499302273766	20.7966899303318	0	0.9399999999999999	0	5.119867888377771	-2.380271892985279	-1.720924330851108	7.634271907513281	0.1332431807786148	0	0	0	5.119867888377771	-2.380271892985279	-1.720924330851108	7.634271907513281	0.1332431807786148	0	0	0	-1.593447150616544	-2.438544578829867	-0.1152542908438978	17.04181355656147	-16.35951995588107	-6.879048418869297	60.70405721569341	128.4600685468152	0	0	15.25904880129607	-19.87495222086591	-8.840114196806574	66.08870615292949	135.9301957803876	0	0
0.06	-2.553952313952558	-0.1647773585968308	18.60304055387655	0	0.9399999999999999	0	37.1325227367104	-16.84130807242058	-11.97421699249384	50.11473675319821	0.8746671601135216	0	0	0	37.1325227367104	-16.84130807242058	-11.97421699249384	50.11473675319821	0.8746671601135216	0	0	0	-2.317875902097557	-2.042302993167941	2.094331432084921	17.01610565005818	-16.35256077253298	-6.894642430518099	60.70962902597003	128.4954013324234	0	0	15.2166468195384	-19.88860472110297	-8.845926604468685	66.09292435199953	135.9806444073594	0	0
0.08	-2.569287256058757	-0.1704676614961211	18.60134303690323	0	0.9399999999999999	0	37.1511946207263	-16.78443805455309	-11.96388007808662	50.12247870507398	0.8748022826642848	0	0	0	37.1511946207263	-16.78443805455309	-11.96388007808662	50.12247870507398	0.8748022826642848	0	0	0	-2.334485156146016	-2.038531825833553	2.096008239829393	17.03276826186205	-16.37228212154342	-6.906596894518044	60.74791799018109	128.4328257579939	0	0	15.2466241536987	-19.89768146590247	-8.842706571254173	66.12084561966033	135.896717677627	0	0
0.1	-2.568449499309293	-0.1677999457650052	18.61219509603689	0	0.9399999999999999	0	37.14216817617275	-16.80303582163917	-11.96805800161431	50.11855581195066	0.874733815263079	0	0	0	37.14216817617275	-16.80303582163917	-11.96805800161431	50.11855581195066	0.874733815263079	0	0	0	-2.332719634801594	-2.038253082855478	2.09209910413233	17.0252375913183	-16.3635931272646	-6.909158378898697	60.73393828452556	128.5135860768814	0	0	15.23130094763555	-19.87395331006441	-8.86321234957463	66.10201505069142	135.9949053764544	0	0
0.12	-2.574005041679632	-0.1748964998857025	18.6252330415357	0	0.9399999999999999	0	37.15305997535574	-16.77018370455469	-11.96200069054614	50.12307333523099	0.8748126609183563	0	0	0	37.15305997535574	-16.77018370455469	-11.96200069054614	50.12307333523099	0.8748126609183563	0	0	0	-2.34037477190707	-2.04061991171719	2.089531011200873	17.02586488830748	-16.35934416737686	-6.931021642943403	60.7468531441758	128.4863370873148	0	0	15.21846018774758	-19.89677039191573	-8.903156091343908	66.11655377435348	135.9699721169943	0	0
0.14	-2.578013744031947	-0.1762362443796826	18.62208081624188	0	0.9399999999999999	0	37.15858845013732	-16.74110421593268	-11.95773304923681	50.12503013520971	0.8748468135207879	0	0	0	37.15858845013732	-16.74110421593268	-11.95773304923681	50.12503013520971	0.8748468135207879	0	0	0	-2.344666842137134	-2.039522412862972	2.089508617903759	17.03323246775145	-16.35785054178911	-6.898249330259847	60.76138185756641	128.4596916426041	0	0	15.21793639999564	-19.90084355621065	-8.882484001459872	66.1294668447467	135.9285242252074	0	0
0.16	-2.579648125311383	-0.1801405550782994	18.62550991611121	0	0.9399999999999999	0	37.16506416503528	-16.71565384561788	-11.95358701317431	50.12756517934105	0.8748910583875631	0	0	0	37.16506416503528	-16.71565384561788	-11.95358701317431	50.12756517934105	0.8748910583875631	0	0	0	-2.347544073228114	-2.041249624857798	2.088602017708962	17.03548934947127	-16.36227222897748	-6.862778532743892	60.77328672335392	128.441198853471	0	0	15.2206586267286	-19.90839108143483	-8.859724634398514	66.14286419067884	135.9063510361019	0	0
0.18	-2.578912931360893	-0.1834293960914036	18.61060523498422	0	0.9399999999999999	0	37.15852202864473	-16.73052576036897	-11.95674310854829	50.12476069062956	0.8748421108257126	0	0	0	37.15852202864473	-16.73052576036897	-11.95674310854829	50.12476069062956	0.8748421108257126	0	0	0	-2.347801052116654	-2.046049067661965	2.085455972337746	17.02387801525148	-16.34676832897205	-6.841620592285232	60.75837897881692	128.4841930395768	0	0	15.20397611352464	-19.89272629683739	-8.866448376741197	66.1360421715261	135.9636288577193	0	0
